<?xml version="1.0" encoding="UTF-8"?>
<svg width="576px" height="167px" viewBox="0 0 576 167" version="1.1" xmlns="http://www.w3.org/2000/svg"
     xmlns:xlink="http://www.w3.org/1999/xlink">
    <g id="Page-1" stroke="none" stroke-width="1" fill="none" fill-rule="evenodd">
        <g id="logo-coral">
            <g id="Page-1">
                <path d="M529.906947,140.221669 L546.404429,140.221669 L574.948029,67.8863517 L558.618373,67.8863517 L546.819996,103.912824 L534.390277,67.8863517 L516.163929,67.8863517 L537.866656,120.135925 L529.906947,140.221669 Z M448.024241,85.0577981 L448.024241,122.136508 L431.380246,122.136508 L431.380246,67.8863517 L443.07473,67.8863517 L446.551109,72.6254152 C451.079725,68.8346972 455.925344,66.6210031 461.508862,66.6210031 C468.98907,66.6210031 474.676479,68.8346972 478.152857,74.3143226 C483.208924,69.676487 488.581994,66.6210031 495.43086,66.6210031 C508.281473,66.6210031 515.761682,73.2594214 515.761682,91.2726576 L515.761682,122.136508 L499.117686,122.136508 L499.117686,93.1693486 C499.117686,84.8473507 495.745199,82.4232092 490.372129,82.4232092 C487.212753,82.4232092 484.580828,83.264999 481.629236,85.1616899 C481.842348,87.0583809 481.946239,89.0589636 481.946239,91.2726576 L481.946239,122.136508 L465.302243,122.136508 L465.302243,93.1693486 C465.302243,84.8473507 461.929757,82.4232092 456.452795,82.4232092 C453.397311,82.4232092 450.869278,83.1611072 448.024241,85.0577981 L448.024241,85.0577981 Z M389.975376,89.6929698 L411.361099,89.6929698 C410.202306,82.6363205 406.408924,79.2638335 400.721515,79.2638335 C395.873232,79.2638335 391.240724,82.1088699 389.975376,89.6929698 L389.975376,89.6929698 Z M401.880308,123.191409 C385.867655,123.191409 373.014377,115.290306 373.014377,94.4320333 C373.014377,74.943001 385.44676,66.5171113 399.77317,66.5171113 C417.048508,66.5171113 424.739163,78.6298273 424.739163,97.6979646 L389.86882,97.6979646 C391.030277,107.0722 396.824241,109.813344 404.514897,109.813344 C411.952483,109.813344 417.770422,107.977923 422.2724,104.949078 L420.013419,118.151326 C415.716562,121.470535 410.559267,123.191409 401.880308,123.191409 L401.880308,123.191409 Z M339.904866,109.182002 C343.695584,109.182002 346.54062,108.547996 349.489548,106.336966 L349.489548,82.7402123 C346.857623,81.1578606 344.225698,80.4226264 340.432316,80.4226264 C332.320766,80.4226264 327.685594,85.8995879 327.685594,95.0633757 C327.685594,104.01938 332.427322,109.182002 339.904866,109.182002 L339.904866,109.182002 Z M352.75548,118.135342 C348.437311,121.401274 343.4878,123.401856 336.428487,123.401856 C321.574626,123.401856 310.831151,114.238069 310.831151,95.3803788 C310.831151,76.6292445 323.156978,66.5171113 338.95652,66.5171113 C342.643347,66.5171113 346.226281,67.0445619 349.489548,68.3072466 L349.489548,45.2805661 L366.136208,45.2805661 L366.136208,122.136508 L355.600516,122.136508 L352.75548,118.135342 Z M240.30728,90.0073091 L240.30728,49.8011904 L257.582618,49.8011904 L257.582618,89.6929698 C257.582618,104.01938 264.007925,106.968308 272.857374,106.968308 C282.44472,106.968308 287.394231,102.754031 287.394231,89.6929698 L287.394231,49.8011904 L304.776125,49.8011904 L304.776125,90.0073091 C304.776125,113.710618 294.453544,123.612304 272.015584,123.612304 C251.157311,123.612304 240.30728,115.079858 240.30728,90.0073091 L240.30728,90.0073091 Z"
                      id="Fill-1" fill="#645A53"></path>
                <path d="M196.279009,93.0220354 C195.578406,92.4599542 194.789894,92.0816816 193.932121,91.9191842 C188.865399,96.969923 182.682506,102.289715 177.192225,105.864658 C174.658864,107.548237 171.472849,108.390027 169.363047,108.390027 C164.506772,108.390027 162.39697,103.760183 161.762964,96.3998502 C160.91851,86.5141478 160.348437,74.6731488 160.348437,56.3722123 C160.348437,37.6024308 156.088874,24.8423892 144.740695,23.8407659 C144.261195,23.7981436 143.776366,23.7688408 143.270227,23.7688408 C136.30415,23.7688408 132.926335,27.3437836 128.493619,36.39036 C124.694909,44.1715879 118.783734,55.5304225 107.808499,76.9854069 C98.3090614,95.4967908 87.7547222,111.9037 78.676179,123.262535 C76.1481457,126.411255 74.1502268,128.574335 72.2721831,129.805053 C71.0174901,130.63086 69.813411,131.043763 68.5453985,131.043763 C64.9624641,131.043763 62.3465224,128.020246 61.4727659,120.97958 C61.2649823,119.306656 61.1557627,117.407301 61.1557627,115.268196 C61.1557627,100.755313 66.6460437,77.1958543 76.1428179,42.4880083 C83.1088949,17.2476337 80.1546389,0.00159833507 64.9544724,0.00159833507 C64.9304974,0.00159833507 64.9065224,0.00159833507 64.8825473,0.00159833507 C64.8505806,0.00159833507 64.8186139,0.00159833507 64.7839834,0.00159833507 L64.7733278,0.00426222685 C61.3315796,0.0442206035 58.4785515,1.29092196 55.7294152,3.45400208 C53.0229011,5.5851155 50.3137232,10.1883205 47.7856899,16.3765411 C44.9353257,23.3479459 27.6040458,58.1117336 0.01944641,76.021078 C-0.305548387,82.8299854 3.54910302,89.6362289 11.3596337,90.374127 C18.4695609,91.0480916 23.5176358,88.0512133 30.0175317,83.6850947 C29.5300395,85.8561665 29.0798418,87.886052 28.6696025,89.7427846 C28.1847742,91.9351675 27.771871,93.8265307 27.4415484,95.3529407 C26.9460645,97.6252404 26.6317253,99.087717 26.5384891,99.4926285 C25.6354298,103.63498 24.990768,107.569548 24.5725369,111.304325 C20.6832549,146.070776 36.7971363,163.226239 55.6681457,163.226239 C58.8221935,163.226239 61.9469386,162.850631 65.0503725,162.062119 C85.8420479,156.790277 105.858531,132.940454 129.551184,78.0376441 C129.191559,84.0100895 129.154264,89.5882789 129.412662,94.7642206 C130.973702,126.23011 143.419405,135.670943 161.003754,135.670943 C174.301902,135.670943 186.755596,128.731505 193.087667,120.105823 C197.733494,114.005511 199.632849,107.273856 199.632849,102.015334 C199.632849,97.9342518 198.338198,94.6763122 196.279009,93.0220354"
                      id="Fill-4" fill="#EA5252"></path>
            </g>
        </g>
    </g>
</svg>
