<svg xmlns="http://www.w3.org/2000/svg" viewBox="0 0 736.59 146.08"><defs><style>.cls-1{fill:#645a53;}.cls-2{fill:#ea5252;}</style></defs><title>Asset 1</title><g id="Layer_2" data-name="Layer 2"><g id="Layer_1-2" data-name="Layer 1"><path class="cls-1" d="M183.47,60.48a7.64,7.64,0,0,1-12.32-5.92,7.92,7.92,0,0,1,2.08-5.28c4.48-5,12.48-10.24,26.24-10.24,19.85,0,31.69,9.76,31.69,26.72v41a8.48,8.48,0,1,1-17,0c-4.33,6.88-11.37,9.28-21,9.28-15.69,0-26.09-9.76-26.09-24.16,0-14.88,12-22.56,25.92-22.56h21V66.4c0-7.2-5.28-12-14.56-12C192.43,54.4,187.47,57.6,183.47,60.48ZM214,87.2V82.72H195.32c-7,0-10.89,3.36-10.89,9.12,0,6.08,4.32,9.76,13.28,9.76C206.19,101.6,214,96.16,214,87.2Z"/><path class="cls-1" d="M277.71,39c14.72,0,23.2,7.36,26.08,11a7.73,7.73,0,0,1-5.92,12.64A7.71,7.71,0,0,1,292,60a18.24,18.24,0,0,0-14.24-6.24c-11.2,0-17.28,8.64-17.28,23.68,0,15.36,6.08,23.84,17.28,23.84,7.36,0,12.16-3.68,15.84-6.4a7.5,7.5,0,0,1,4.8-1.6,7.72,7.72,0,0,1,5,13.6c-3.68,3.36-12.48,9.12-25.6,9.12C256,116,243,103.52,243,77.44S256,39,277.71,39Z"/><path class="cls-1" d="M331.15,60.48a7.64,7.64,0,0,1-12.32-5.92,7.92,7.92,0,0,1,2.08-5.28c4.48-5,12.48-10.24,26.24-10.24,19.84,0,31.68,9.76,31.68,26.72v41a8.48,8.48,0,1,1-17,0c-4.32,6.88-11.36,9.28-21,9.28-15.68,0-26.08-9.76-26.08-24.16,0-14.88,12-22.56,25.92-22.56h21V66.4c0-7.2-5.28-12-14.56-12C340.11,54.4,335.15,57.6,331.15,60.48ZM361.71,87.2V82.72H343c-7,0-10.88,3.36-10.88,9.12,0,6.08,4.32,9.76,13.28,9.76C353.87,101.6,361.71,96.16,361.71,87.2Z"/><path class="cls-1" d="M440.75,45.44V8.64a8.64,8.64,0,1,1,17.28,0V84c0,21.28-13.76,32-33.12,32-21.6,0-34.24-12.32-34.24-38.4S403,39,423.15,39C430.83,39,437.55,42.24,440.75,45.44Zm0,16.48s-6.24-8.16-15.84-8.16c-10.88,0-17.12,8-17.12,23.84,0,15.68,6.08,23.68,17.12,23.68,9.28,0,15.84-6.24,15.84-17.28Z"/><path class="cls-1" d="M504.59,39c27,0,32,20.8,32,31.84,0,5.92,0,12.8-9.76,12.8H487.31c0,11.52,8.16,16.8,18.72,16.8a27.38,27.38,0,0,0,15.84-5A8.62,8.62,0,0,1,527,93.76a7.51,7.51,0,0,1,7.52,7.52,8,8,0,0,1-2.72,5.92c-2.72,2.56-11.2,8.8-25.76,8.8-22.24,0-36-12-36-38.72C470,52.8,482.83,39,504.59,39Zm-16.8,30.24h31.68c0-7.84-4.48-15.52-14.88-15.52C495.31,53.76,488.59,59,487.79,69.28Z"/><path class="cls-1" d="M660.59,66.88v40A8.34,8.34,0,0,1,652,115.2c-5.12,0-8.64-3.52-8.64-8.32V70.08c0-9.12-3.68-15.36-14.08-15.36-11.52,0-16,6.24-16,15.2v37a8.34,8.34,0,0,1-8.64,8.32c-5.12,0-8.64-3.52-8.64-8.32V70.08c0-9.12-3.68-15.36-14.08-15.36-12,0-16,7-16,16.48v35.68c0,4.8-3.67,8.32-8.63,8.32s-8.65-3.52-8.65-8.32V48.64a8.64,8.64,0,1,1,17.28,0c3-4.64,9.77-9.6,20.49-9.6C599.47,39,606,43.2,610,49.44c5.12-6.88,12-10.4,22.88-10.4C654.67,39,660.59,53,660.59,66.88Z"/><path class="cls-1" d="M693.38,108.8,668.74,52a8.93,8.93,0,0,1-.64-3.36A8.6,8.6,0,0,1,676.74,40a8.42,8.42,0,0,1,8,5.44l17.61,44.48L720,45.44A8.43,8.43,0,0,1,728,40a8.6,8.6,0,0,1,8.64,8.64A8.93,8.93,0,0,1,736,52l-29.76,67.2c-7,15.68-17.12,26.88-33.13,26.88a8,8,0,1,1,0-16C683.3,130.08,688.11,121.92,693.38,108.8Z"/><path class="cls-2" d="M121,45.69c-.07,3-.21,5.92-.23,8.78,0,10.37-.06,20.73-.16,31.09-.13,13.65-5.26,28.3-15.58,37.52q-1.59,1.41-3.3,2.7a55.06,55.06,0,0,1-17.25,8.52A73.23,73.23,0,0,1,70.82,137a107.44,107.44,0,0,1-12.69.48c-8.45-.13-17.24-1.13-25.29-3.83A46,46,0,0,1,12,119.13c-2.38-2.85-5-6.37-6.28-9.89a81.65,81.65,0,0,1-5-21C.09,80.62,0,72.89,0,65.2L.25,16.27c-.17-.85-.11-1,1.47-1.09,4.36-.15,8.69.17,13,.11,5.32,0,10.87.08,15.91,2,5.78,2.21,9.14,6.71,10.57,12.64s.95,12.7,1,18.91c.08,7.6,0,15.21,0,22.82,0,5.11-.36,10.25.28,15.35a25.66,25.66,0,0,0,2.85,9.64,16.9,16.9,0,0,0,8.11,6.68,20.14,20.14,0,0,0,14,.43,14.25,14.25,0,0,0,6.93-5c4.56-6,4.79-14.41,4.83-21.71.11-20.2,0-40.4,0-60.6,0-.36,0-.73.06-1.09a.81.81,0,0,1,.38-.17c7.62,0,15.77-.76,23.37.76a29.83,29.83,0,0,1,4.64,1.29,19,19,0,0,1,10.77,10.3C120.9,33.16,121.11,39.45,121,45.69Z"/></g></g></svg>